<?xml version="1.0" encoding="utf-8"?>
<svg xmlns="http://www.w3.org/2000/svg" width="72" height="72" viewBox="0 0 72 72" fill="none">
<path d="M25 21.7161C25 21.7161 32.875 23.9303 43 21.7161H25Z" fill="#00ED64"/>
<path d="M50.8188 33.2304C49.075 33.2304 47.6688 34.6143 47.6688 36.3304V46.4607C47.6688 48.9518 45.5875 51 43.0563 51H25C22.4688 51 20.3875 48.9518 20.3875 46.4607V36.3857C20.3875 34.6697 18.9813 33.2857 17.2375 33.2857" fill="#00ED64"/>
<path d="M50.8188 33.2304C49.075 33.2304 47.6688 31.8464 47.6688 30.1304V24.5393C47.6688 22.0482 45.5875 20 43.0563 20H25.0563C22.525 20 20.4438 22.0482 20.4438 24.5393V30.1304C20.4438 31.8464 18.9813 33.2857 17.2375 33.2857" fill="#00ED64"/>
<path fill-rule="evenodd" clip-rule="evenodd" d="M20.0077 24.4493C20.0077 21.6597 22.3167 19.3656 25.1332 19.3656H43.1989C46.0155 19.3656 48.3244 21.6597 48.3244 24.4493V30.1072C48.3244 31.575 49.5157 32.7541 50.9898 32.7541H52.1754V33.7344H50.9898C49.5157 33.7344 48.3244 34.9134 48.3244 36.3813V46.6327C48.3244 49.4223 46.0155 51.7164 43.1989 51.7164H25.0767C22.2602 51.7164 19.9513 49.4223 19.9513 46.6327V36.4373C19.9513 34.9694 18.76 33.7904 17.2859 33.7904H16.0438V32.754H17.3423C18.8164 32.754 20.0077 31.575 20.0077 30.1072V24.4493ZM19.1052 33.2879C20.2052 33.9129 20.9435 35.0884 20.9435 36.4373V46.6327C20.9435 48.8848 22.8122 50.7361 25.0767 50.7361H43.1989C45.4634 50.7361 47.3322 48.8848 47.3322 46.6327V36.3813C47.3322 35.0411 48.0608 33.8722 49.149 33.2442C48.0608 32.6162 47.3322 31.4473 47.3322 30.1072V24.4493C47.3322 22.1971 45.4634 20.3459 43.1989 20.3459H25.1332C22.8687 20.3459 21 22.1971 21 24.4493V30.1072C21 31.479 20.2364 32.6715 19.1052 33.2879ZM24.9403 22.0636C24.9403 22.0636 24.9399 22.0634 25.0767 21.5923C25.2136 21.1211 25.2134 21.1211 25.2134 21.1211L25.2171 21.1221L25.232 21.1262C25.2457 21.13 25.2669 21.1357 25.2955 21.1432C25.3527 21.1582 25.4392 21.1804 25.5538 21.208C25.783 21.2633 26.1242 21.3404 26.5663 21.4265C27.4508 21.5986 28.7386 21.8059 30.342 21.9443C33.5498 22.221 38.0137 22.221 43.0344 21.1139L43.2506 22.0707C38.1093 23.2044 33.5403 23.2043 30.2557 22.9209C28.6129 22.7791 27.2897 22.5664 26.3746 22.3883C25.917 22.2993 25.5613 22.2189 25.3186 22.1604C25.1972 22.1311 25.104 22.1073 25.0404 22.0906C25.0087 22.0823 24.9843 22.0757 24.9675 22.0711L24.9479 22.0657L24.9425 22.0642L24.9403 22.0636Z" fill="white"/>
<path fill-rule="evenodd" clip-rule="evenodd" d="M44.2031 0L36.7688 5.81756C36.2957 6.18323 36.2137 6.86153 36.5764 7.329L42.4217 14.748L43.2047 14.1458L37.9162 7.43354C53.0088 8.72467 64.4704 21.5213 63.685 36.4609L63.6845 36.4718C63.6736 36.8357 63.6416 37.1908 63.6072 37.5727L63.6036 37.6129C63.5825 37.8326 63.5585 38.0531 63.5317 38.2726L50.3816 58.5683C49.8519 58.892 49.3111 59.1985 48.7603 59.4871C46.6996 60.5712 44.5221 61.3931 42.2638 61.9408C39.6045 62.5868 36.7932 62.635 33.9945 62.635L4.00002 62.6345L4 63.6149L33.9945 63.6154C36.7874 63.6154 39.7102 63.5706 42.5004 62.8929C44.8384 62.3258 47.0921 61.4753 49.2251 60.3532C53.4185 58.1562 57.0457 54.9554 59.7095 51.092C62.3745 47.2269 64.1333 42.4798 64.5914 37.7054L64.5917 37.7026L64.5964 37.6505C64.63 37.2777 64.6642 36.8982 64.6762 36.5063C65.4938 20.8968 53.4071 7.56105 37.5913 6.42456L44.8191 0.768478L44.2031 0ZM50.3816 58.5683L63.5317 38.2726C62.997 42.6576 61.3381 46.9887 58.8895 50.5401C56.6668 53.7637 53.7478 56.5115 50.3816 58.5683Z" fill="white"/>
<path d="M5.73363 33.5322C6.48665 19.0779 18.0699 7.6756 32.4224 6.38646L32.5122 7.36276C18.6339 8.60931 7.4512 19.6327 6.72455 33.5828C6.13857 44.6305 12.279 54.5073 21.6519 59.4475L21.1848 60.3125C11.4907 55.2029 5.12652 44.98 5.73363 33.5322Z" fill="white"/>
<path d="M61.929 55.252L67.7743 62.671C68.1371 63.1385 68.055 63.8168 67.5818 64.1825L60.1477 70L59.5316 69.2315L66.7083 63.6155H48.8907V62.6351H66.4886L61.146 55.8542L61.929 55.252Z" fill="white"/>
</svg>