<?xml version="1.0" encoding="utf-8"?>
<svg xmlns="http://www.w3.org/2000/svg" width="72" height="73" viewBox="0 0 72 73" fill="none">
<path d="M22.9809 30.4595C22.9809 27.1502 20.2981 24.4675 16.9889 24.4675C13.6796 24.4675 10.9969 27.1502 10.9969 30.4595C10.9969 33.7688 13.6796 36.4515 16.9889 36.4515C20.2981 36.4515 22.9809 33.7688 22.9809 30.4595Z" fill="#00ED64"/>
<path d="M37.9565 53.4285C37.9565 50.1193 35.2738 47.4366 31.9645 47.4366C28.6553 47.4366 25.9725 50.1193 25.9725 53.4285C25.9725 56.7378 28.6553 59.4205 31.9645 59.4205C35.2738 59.4205 37.9565 56.7378 37.9565 53.4285Z" fill="#00ED64"/>
<path d="M51.938 22.4709C51.938 19.1616 49.2553 16.4789 45.946 16.4789C42.6368 16.4789 39.954 19.1616 39.954 22.4709C39.954 25.7802 42.6368 28.4629 45.946 28.4629C49.2553 28.4629 51.938 25.7802 51.938 22.4709Z" fill="#00ED64"/>
<path d="M63.9281 36.4523C63.9281 33.143 61.2454 30.4603 57.9361 30.4603C54.6269 30.4603 51.9442 33.143 51.9442 36.4523C51.9442 39.7615 54.6269 42.4442 57.9361 42.4442C61.2454 42.4442 63.9281 39.7615 63.9281 36.4523Z" fill="#00ED64"/>
<path fill-rule="evenodd" clip-rule="evenodd" d="M35.6662 3.94943L68.5007 18.8155V54.4191C68.5007 54.6182 68.3827 54.7984 68.2002 54.878L35.9156 68.9589C35.7869 69.015 35.6405 69.0146 35.5122 68.9576L3.7969 54.8767C3.61599 54.7964 3.49939 54.617 3.49939 54.4191V18.8183L35.6662 3.94943ZM36.0308 5.2137V8.16398H35.0294V5.34689L4.50073 19.4586V53.4818L7.29561 52.0982L7.73985 52.9956L5.03909 54.3326L35.7172 67.953L66.8315 54.3825L64.0372 52.9993L64.4815 52.1019L67.4994 53.5958V19.4613L36.0308 5.2137ZM35.0294 15.8268V12.1628H36.0308V15.8268H35.0294ZM45.946 16.9796C42.9133 16.9796 40.4547 19.4381 40.4547 22.4709C40.4547 25.5037 42.9133 27.9622 45.946 27.9622C48.9788 27.9622 51.4373 25.5037 51.4373 22.4709C51.4373 19.4381 48.9788 16.9796 45.946 16.9796ZM39.4534 22.4709C39.4534 18.8851 42.3602 15.9782 45.946 15.9782C49.5318 15.9782 52.4387 18.8851 52.4387 22.4709C52.4387 26.0567 49.5318 28.9635 45.946 28.9635C42.3602 28.9635 39.4534 26.0567 39.4534 22.4709ZM35.0294 23.4914V19.8273H36.0308V23.4914H35.0294ZM16.9889 24.9682C13.9561 24.9682 11.4976 27.4267 11.4976 30.4595C11.4976 33.4923 13.9561 35.9508 16.9889 35.9508C20.0216 35.9508 22.4802 33.4923 22.4802 30.4595C22.4802 27.4267 20.0216 24.9682 16.9889 24.9682ZM10.4962 30.4595C10.4962 26.8737 13.4031 23.9669 16.9889 23.9669C20.5746 23.9669 23.4815 26.8737 23.4815 30.4595C23.4815 34.0453 20.5746 36.9522 16.9889 36.9522C13.4031 36.9522 10.4962 34.0453 10.4962 30.4595ZM35.0295 31.1545V27.4904H36.0308V31.1545H35.0295ZM57.9361 30.9609C54.9034 30.9609 52.4448 33.4195 52.4448 36.4523C52.4448 39.485 54.9034 41.9436 57.9361 41.9436C60.9689 41.9436 63.4275 39.485 63.4275 36.4523C63.4275 33.4195 60.9689 30.9609 57.9361 30.9609ZM51.4435 36.4523C51.4435 32.8665 54.3504 29.9596 57.9361 29.9596C61.5219 29.9596 64.4288 32.8665 64.4288 36.4523C64.4288 40.0381 61.5219 42.9449 57.9361 42.9449C54.3504 42.9449 51.4435 40.0381 51.4435 36.4523ZM35.0481 38.4973V35.1551H36.0494V38.4763L40.2525 40.1057L39.8906 41.0393L35.5646 39.3623L31.9135 41.028L31.4979 40.117L35.0481 38.4973ZM28.3343 42.795L25.0506 44.4205L24.6064 43.5231L27.8901 41.8976L28.3343 42.795ZM43.8683 41.9011L47.152 43.5267L46.7078 44.4241L43.424 42.7985L43.8683 41.9011ZM21.4706 46.1957L18.1868 47.8213L17.7426 46.9239L21.0263 45.2983L21.4706 46.1957ZM50.7462 45.3004L54.0299 46.926L53.5857 47.8234L50.3019 46.1978L50.7462 45.3004ZM31.9645 47.9372C28.9318 47.9372 26.4732 50.3958 26.4732 53.4285C26.4732 56.4613 28.9318 58.9199 31.9645 58.9199C34.9973 58.9199 37.4558 56.4613 37.4558 53.4285C37.4558 50.3958 34.9973 47.9372 31.9645 47.9372ZM25.4719 53.4285C25.4719 49.8428 28.3788 46.9359 31.9645 46.9359C35.5503 46.9359 38.4572 49.8428 38.4572 53.4285C38.4572 57.0143 35.5503 59.9212 31.9645 59.9212C28.3788 59.9212 25.4719 57.0143 25.4719 53.4285ZM14.6005 49.5965L11.3168 51.222L10.8726 50.3246L14.1563 48.6991L14.6005 49.5965ZM57.6115 48.6994L60.8952 50.325L60.451 51.2224L57.1673 49.5968L57.6115 48.6994Z" fill="white"/>
</svg>